<svg width="55" height="54" viewBox="0 0 55 54" fill="none" xmlns="http://www.w3.org/2000/svg">
<path d="M19.018 42.738C18.9687 42.7627 18.9193 42.775 18.87 42.775C18.8207 42.775 18.722 42.775 18.574 42.775C18.2287 42.775 17.8217 42.7133 17.353 42.59C16.909 42.4913 16.465 42.3557 16.021 42.183C15.6017 42.035 15.2317 41.8623 14.911 41.665C14.615 41.4677 14.43 41.295 14.356 41.147C14.3313 40.8017 14.319 40.444 14.319 40.074C14.319 39.704 14.319 39.3463 14.319 39.001C14.319 36.2383 14.5163 33.3523 14.911 30.343C15.3303 27.3337 16.0087 24.0777 16.946 20.575C17.0447 20.2297 17.1433 19.798 17.242 19.28C17.3653 18.7373 17.4887 18.1577 17.612 17.541C17.02 18.0097 16.317 18.762 15.503 19.798C14.689 20.8093 13.8257 22.018 12.913 23.424C12.025 24.8053 11.1247 26.3347 10.212 28.012C9.324 29.6647 8.51 31.3543 7.77 33.081C7.03 34.783 6.38867 36.4727 5.846 38.15C5.328 39.8273 5.00733 41.3813 4.884 42.812C3.7 42.4667 2.87367 42.1213 2.405 41.776C1.961 41.4307 1.739 41.0113 1.739 40.518C1.739 40.074 1.87467 39.445 2.146 38.631C2.41733 37.817 2.79967 36.855 3.293 35.745C3.78633 34.635 4.39067 33.4017 5.106 32.045C5.82133 30.6637 6.61067 29.1837 7.474 27.605C8.46067 25.8043 9.42267 24.1147 10.36 22.536C11.322 20.9573 12.2593 19.5267 13.172 18.244C14.0847 16.9613 14.9727 15.8513 15.836 14.914C16.724 13.9767 17.5997 13.2613 18.463 12.768C18.8083 12.768 19.2647 12.8543 19.832 13.027C20.424 13.1997 20.9913 13.4093 21.534 13.656C22.1013 13.9027 22.5947 14.1617 23.014 14.433C23.458 14.6797 23.7047 14.8893 23.754 15.062C23.4087 15.7527 23.0017 16.7887 22.533 18.17C22.0643 19.5513 21.5833 21.1177 21.09 22.869C20.6213 24.6203 20.165 26.4827 19.721 28.456C19.3017 30.4047 18.9687 32.2793 18.722 34.08C19.2893 32.7233 19.943 31.3173 20.683 29.862C21.4477 28.382 22.2493 26.9267 23.088 25.496C23.9267 24.0407 24.7777 22.6347 25.641 21.278C26.529 19.9213 27.3923 18.688 28.231 17.578C29.0697 16.4433 29.8467 15.4567 30.562 14.618C31.302 13.7793 31.9557 13.1627 32.523 12.768C32.8683 12.768 33.3247 12.8543 33.892 13.027C34.484 13.1997 35.0513 13.4093 35.594 13.656C36.1613 13.9027 36.6547 14.1617 37.074 14.433C37.518 14.6797 37.7647 14.8893 37.814 15.062C37.0247 16.468 36.334 18.1823 35.742 20.205C35.15 22.2277 34.6443 24.349 34.225 26.569C33.8303 28.789 33.522 30.9967 33.3 33.192C33.1027 35.3627 33.004 37.3113 33.004 39.038C33.004 39.6053 33.004 40.1973 33.004 40.814C33.004 41.4307 33.0287 42.072 33.078 42.738C32.7327 42.738 32.3133 42.6887 31.82 42.59C31.3513 42.516 30.8827 42.405 30.414 42.257C29.97 42.109 29.563 41.9363 29.193 41.739C28.823 41.5663 28.564 41.369 28.416 41.147C28.3913 40.8017 28.379 40.444 28.379 40.074C28.379 39.704 28.379 39.3463 28.379 39.001C28.379 36.2383 28.5763 33.3523 28.971 30.343C29.3903 27.3337 30.0687 24.0777 31.006 20.575C31.1047 20.2297 31.2157 19.761 31.339 19.169C31.4623 18.577 31.5857 17.9603 31.709 17.319C31.0183 17.6643 30.229 18.3303 29.341 19.317C28.4777 20.279 27.5897 21.463 26.677 22.869C25.789 24.2503 24.901 25.792 24.013 27.494C23.1497 29.196 22.3603 30.935 21.645 32.711C20.9543 34.4623 20.3623 36.2137 19.869 37.965C19.4003 39.6917 19.1167 41.2827 19.018 42.738Z" fill="#EEEEEE"/>
<path d="M54.897 19.613C54.897 20.797 54.6257 21.9193 54.083 22.98C53.565 24.016 52.8373 24.9533 51.9 25.792C50.9627 26.606 49.865 27.2967 48.607 27.864C47.349 28.4313 45.98 28.8137 44.5 29.011C44.87 30.121 45.314 31.268 45.832 32.452C46.3747 33.6113 46.9543 34.7337 47.571 35.819C48.1877 36.9043 48.829 37.9033 49.495 38.816C50.161 39.7287 50.8147 40.481 51.456 41.073C51.3327 41.3197 51.1477 41.5663 50.901 41.813C50.679 42.0597 50.4077 42.2817 50.087 42.479C49.791 42.701 49.4703 42.8737 49.125 42.997C48.8043 43.145 48.496 43.219 48.2 43.219C47.6573 43.219 47.1393 42.96 46.646 42.442C46.1527 41.924 45.647 41.11 45.129 40C44.6357 38.8653 44.1053 37.41 43.538 35.634C42.9953 33.8333 42.391 31.675 41.725 29.159C41.4537 29.159 41.1823 29.159 40.911 29.159C40.6397 29.159 40.43 29.1343 40.282 29.085C40.1093 28.9863 39.9243 28.8137 39.727 28.567C39.061 29.9977 38.469 31.342 37.951 32.6C37.433 33.858 36.9643 35.079 36.545 36.263C36.1503 37.4223 35.7927 38.557 35.472 39.667C35.176 40.7523 34.917 41.8623 34.695 42.997C33.8563 42.7997 33.1287 42.442 32.512 41.924C31.8953 41.406 31.3157 40.6783 30.773 39.741C30.8717 39.519 30.9703 39.3093 31.069 39.112C31.1923 38.89 31.3403 38.594 31.513 38.224C31.6857 37.8293 31.8953 37.336 32.142 36.744C32.4133 36.152 32.7587 35.3627 33.178 34.376C33.622 33.3893 34.14 32.1807 34.732 30.75C35.3487 29.3193 36.0887 27.5803 36.952 25.533C37.3467 24.6203 37.6797 23.8187 37.951 23.128C38.247 22.4373 38.506 21.7837 38.728 21.167C38.95 20.5257 39.1473 19.8967 39.32 19.28C39.5173 18.6387 39.7147 17.911 39.912 17.097C38.7773 17.4917 37.7167 17.9357 36.73 18.429C35.768 18.8977 34.9663 19.4033 34.325 19.946C34.103 19.798 33.8687 19.576 33.622 19.28C33.4 18.984 33.1903 18.6633 32.993 18.318C32.7957 17.948 32.623 17.578 32.475 17.208C32.327 16.838 32.2407 16.505 32.216 16.209C32.956 15.7157 33.8563 15.2593 34.917 14.84C36.0023 14.4207 37.1493 14.063 38.358 13.767C39.5667 13.4463 40.8 13.1997 42.058 13.027C43.316 12.8543 44.4877 12.768 45.573 12.768C48.533 12.768 50.827 13.3847 52.455 14.618C54.083 15.8267 54.897 17.4917 54.897 19.613ZM45.869 16.505C45.6963 16.727 45.425 17.171 45.055 17.837C44.685 18.503 44.2533 19.3047 43.76 20.242C43.2913 21.1547 42.7857 22.1537 42.243 23.239C41.725 24.3243 41.2193 25.3973 40.726 26.458C42.576 26.458 44.278 26.2853 45.832 25.94C47.386 25.5947 48.7303 25.1137 49.865 24.497C50.9997 23.8557 51.8753 23.1157 52.492 22.277C53.1333 21.4137 53.454 20.464 53.454 19.428C53.454 18.1947 53.01 17.2573 52.122 16.616C51.234 15.95 49.865 15.617 48.015 15.617C47.5957 15.617 47.1763 15.6417 46.757 15.691C46.3377 15.7157 45.8937 15.7527 45.425 15.802L45.869 16.505Z" fill="#EEEEEE"/>
</svg>
